<?xml version="1.0" encoding="iso-8859-1"?>
<!-- Generator: Adobe Illustrator 19.0.0, SVG Export Plug-In . SVG Version: 6.00 Build 0)  -->
<svg version="1.1" id="Capa_1" xmlns="http://www.w3.org/2000/svg" xmlns:xlink="http://www.w3.org/1999/xlink" x="0px" y="0px"
	 viewBox="0 0 512 512" style="enable-background:new 0 0 512 512;" xml:space="preserve">
<g>
	<g>
		<path d="M435.2,179.2C435.2,79.36,355.84,0,256,0S76.8,79.36,76.8,179.2c0,58.88,28.16,112.64,74.24,143.36L79.36,465.92
			l69.12-23.04L168.96,512l76.8-153.6c2.56,0,5.12,0,7.68,0s5.12,0,7.68,0l76.8,153.6l23.04-69.12l69.12,23.04L358.4,322.56
			C407.04,291.84,435.2,238.08,435.2,179.2z M330.24,279.04l-76.8-51.2l-76.8,51.2l28.16-76.8l-51.2-48.64h71.68L256,69.12
			l33.28,84.48h69.12l-51.2,48.64L330.24,279.04z"/>
	</g>
</g>
<g>
</g>
<g>
</g>
<g>
</g>
<g>
</g>
<g>
</g>
<g>
</g>
<g>
</g>
<g>
</g>
<g>
</g>
<g>
</g>
<g>
</g>
<g>
</g>
<g>
</g>
<g>
</g>
<g>
</g>
</svg>
